<svg width="512" height="512" viewBox="0 0 512 512" fill="none" xmlns="http://www.w3.org/2000/svg">
<path d="M213.371 30.9062H298.941V45.3047H329.844V28.8906C329.848 12.9609 316.895 0 300.973 0H211.34C195.418 0 182.465 12.9609 182.465 28.8906V45.3047H213.371V30.9062Z" fill="#FF6D6D"/>
<path d="M401.211 167.75H111.102C103.152 167.75 96.8945 174.531 97.5352 182.457L121.789 482.363C123.141 499.105 137.105 512 153.883 512H358.426C375.203 512 389.168 499.105 390.52 482.359L414.773 182.457C415.418 174.531 409.16 167.75 401.211 167.75V167.75ZM181.348 480.012C181.023 480.031 180.699 480.043 180.379 480.043C172.277 480.043 165.477 473.734 164.973 465.539L149.773 219.332C149.25 210.812 155.73 203.48 164.246 202.957C172.734 202.441 180.098 208.906 180.621 217.43L195.816 463.637C196.344 472.156 189.863 479.484 181.348 480.012V480.012ZM271.781 464.59C271.781 473.121 264.863 480.039 256.328 480.039C247.793 480.039 240.875 473.121 240.875 464.59V218.379C240.875 209.844 247.793 202.926 256.328 202.926C264.859 202.926 271.781 209.844 271.781 218.379V464.59ZM362.539 219.289L348.027 465.496C347.547 473.707 340.734 480.039 332.617 480.039C332.312 480.039 332.004 480.031 331.695 480.016C323.176 479.512 316.676 472.199 317.18 463.68L331.688 217.469C332.188 208.949 339.477 202.449 348.02 202.953C356.539 203.453 363.039 210.77 362.539 219.289V219.289Z" fill="#FF6D6D"/>
<path d="M454.648 120.062L444.5 89.6406C441.824 81.6211 434.316 76.2109 425.859 76.2109H86.4492C77.9961 76.2109 70.4844 81.6211 67.8125 89.6406L57.6641 120.062C55.707 125.93 58.2539 131.914 63.0078 134.898C64.9453 136.113 67.2383 136.844 69.7578 136.844H442.555C445.074 136.844 447.371 136.113 449.305 134.895C454.059 131.91 456.605 125.926 454.648 120.062Z" fill="#FF6D6D"/>
</svg>
